<?xml version="1.0" standalone="no"?>
<!DOCTYPE svg PUBLIC "-//W3C//DTD SVG 20010904//EN"
 "http://www.w3.org/TR/2001/REC-SVG-20010904/DTD/svg10.dtd">
<svg version="1.0" xmlns="http://www.w3.org/2000/svg"
 width="933.000000pt" height="933.000000pt" viewBox="0 0 933.000000 933.000000"
 preserveAspectRatio="xMidYMid meet">
<metadata>
Created by potrace 1.11, written by Peter Selinger 2001-2013
</metadata>
<g transform="translate(0.000000,933.000000) scale(0.100000,-0.100000)"
fill="#000000" stroke="none">
<path d="M1160 7915 c0 -1125 3 -1415 13 -1415 9 0 9 -2 0 -8 -18 -11 -18
-1543 0 -1554 9 -6 9 -8 0 -8 -10 0 -13 -508 -13 -2465 l0 -2465 1145 0 c1003
0 1145 2 1145 15 0 8 5 15 10 15 6 0 9 -6 8 -13 -2 -9 194 -12 951 -14 893 -2
955 -1 968 15 10 13 13 14 11 2 -3 -13 29 -15 226 -18 160 -2 233 1 242 9 20
16 17 29 -6 29 -14 0 -20 7 -20 21 0 13 -4 18 -12 13 -7 -5 -8 -3 -4 5 5 7 21
11 41 8 25 -3 36 1 50 19 10 13 24 24 31 24 8 0 11 8 9 20 -2 11 0 18 6 15 5
-4 9 3 9 14 0 12 6 21 14 21 8 0 17 8 21 18 6 16 7 16 19 0 11 -15 16 -15 39
-3 23 12 26 11 30 -3 4 -15 5 -15 6 -1 1 12 8 15 25 12 13 -3 27 0 31 6 3 6 3
11 -2 10 -4 -1 -16 -1 -27 0 -14 1 -16 4 -7 15 9 11 8 15 -4 20 -9 3 -13 2
-10 -4 3 -6 -1 -10 -10 -10 -9 0 -14 -4 -10 -9 7 -13 -32 -34 -46 -26 -7 5 -6
11 2 21 9 11 8 14 -2 14 -10 1 -10 3 2 10 9 5 24 21 33 34 15 24 15 25 -1 19
-14 -5 -16 -3 -6 7 17 18 -32 59 -50 41 -6 -6 -18 -11 -27 -11 -13 0 -13 1 0
10 12 8 11 10 -6 10 -12 0 -24 -6 -27 -13 -5 -13 -51 -16 -64 -4 -15 15 -23 6
-12 -15 10 -18 9 -20 -7 -14 -16 6 -16 5 2 -15 10 -12 13 -19 7 -15 -10 6 -11
1 -2 -21 7 -19 7 -29 0 -31 -6 -2 -9 -8 -6 -12 3 -5 -9 -14 -27 -19 -18 -5
-26 -10 -18 -10 10 -1 6 -7 -10 -16 -14 -8 -19 -14 -12 -15 23 0 7 -23 -17
-25 -14 -1 -20 3 -17 12 7 17 -21 17 -27 1 -7 -17 -27 10 -27 36 0 14 5 17 23
13 21 -6 21 -5 3 8 -10 8 -22 12 -27 9 -4 -2 -4 10 1 27 8 28 8 29 -7 17 -10
-7 -14 -8 -10 -1 4 6 1 14 -5 16 -10 4 -10 6 0 6 17 1 15 21 -3 21 -8 0 -23
-9 -32 -20 -10 -11 -22 -20 -27 -20 -5 0 1 11 14 25 23 25 23 25 4 41 -10 8
-13 13 -6 9 7 -4 12 0 12 9 0 19 -12 20 -29 3 -10 -10 -11 -8 -5 7 6 16 4 18
-9 13 -9 -3 -17 -3 -17 2 0 5 -11 7 -25 6 -14 -2 -23 1 -19 6 3 5 12 9 20 9
14 0 13 2 0 16 -18 18 -20 30 -6 39 6 4 8 11 5 16 -4 5 1 9 9 9 8 0 16 8 19
18 3 14 6 13 16 -8 11 -25 11 -25 7 -1 -3 17 0 25 15 28 10 3 19 10 19 15 0 5
4 7 9 4 5 -3 14 1 21 9 7 8 21 15 31 15 11 0 19 5 19 11 0 5 4 8 9 4 5 -3 12
-1 16 5 3 5 1 10 -6 10 -31 0 12 17 49 19 6 1 12 7 12 14 0 8 14 12 36 12 26
0 40 6 48 20 24 41 56 61 56 33 0 -6 7 -3 15 8 15 18 15 18 29 0 14 -17 15
-16 21 18 6 32 9 34 27 25 14 -8 23 -8 31 0 18 18 39 13 32 -8 -4 -12 0 -21
11 -25 11 -4 15 -2 11 8 -4 10 0 12 16 8 12 -3 16 -7 9 -10 -10 -3 -10 -7 -1
-18 6 -8 15 -11 20 -8 5 3 9 1 9 -4 0 -5 12 -9 28 -9 58 -1 103 -11 115 -26 7
-8 30 -18 52 -22 22 -4 34 -10 28 -12 -19 -7 -16 -21 7 -28 33 -10 69 -49 74
-80 6 -32 26 -49 40 -35 16 16 25 12 41 -20 13 -26 14 -29 0 -24 -11 4 -15 -1
-16 -17 0 -23 -1 -23 -10 -4 -9 20 -9 20 -6 0 1 -11 12 -25 25 -31 12 -6 19
-14 16 -17 -4 -3 10 -3 30 0 23 4 36 2 36 -5 0 -6 7 -9 15 -6 8 4 15 1 15 -6
0 -6 -5 -8 -12 -4 -7 5 -9 2 -5 -9 3 -9 1 -18 -6 -21 -7 -3 0 -3 15 0 18 4 33
0 43 -10 15 -15 15 -16 -2 -17 -10 0 -13 -3 -5 -6 6 -2 9 -10 6 -15 -4 -6 1
-17 10 -23 14 -11 15 -13 1 -19 -9 -3 -15 0 -15 9 0 8 -4 15 -10 15 -5 0 -7
-7 -4 -15 4 -8 1 -16 -5 -16 -6 -1 -15 -3 -21 -4 -5 -1 -19 -3 -30 -4 -11 0
-20 -6 -20 -12 0 -6 7 -9 14 -6 10 4 13 1 9 -9 -4 -10 -14 -14 -30 -11 -13 2
-21 2 -18 -1 2 -3 -1 -12 -8 -20 -10 -13 -9 -14 12 -3 17 9 26 10 34 2 8 -8 5
-11 -12 -11 -12 0 -19 -4 -16 -10 4 -6 10 -8 15 -5 5 3 11 1 15 -4 3 -5 -3
-15 -12 -21 -15 -10 -15 -11 -1 -6 10 3 18 -3 22 -17 5 -18 8 -20 16 -7 8 12
10 11 10 -7 0 -13 5 -23 10 -23 6 0 10 -10 10 -22 0 -13 4 -18 8 -13 10 14 59
18 67 6 4 -8 223 -11 701 -11 l694 0 0 4665 0 4665 -3500 0 -3500 0 0 -1415z
m2945 -429 c-11 -8 -26 -11 -34 -8 -11 4 -8 9 12 17 15 6 26 14 24 17 -2 3 1
2 7 -3 6 -6 3 -14 -9 -23z m42 9 c0 -8 -4 -15 -9 -15 -10 0 -11 14 -1 23 9 10
10 9 10 -8z m-113 -16 c-3 -5 2 -9 10 -9 9 0 16 -7 16 -16 0 -14 3 -14 15 -4
8 7 15 9 15 5 0 -4 7 -2 15 5 9 7 18 10 22 6 3 -3 0 -6 -8 -6 -9 -1 -6 -8 10
-20 18 -16 27 -18 37 -9 13 10 18 6 15 -13 0 -5 7 -8 17 -9 11 0 12 -2 4 -6
-7 -3 -19 1 -27 7 -10 8 -15 9 -15 2 0 -6 -13 -9 -29 -7 -19 3 -31 -1 -35 -11
-5 -12 1 -14 31 -9 29 4 39 1 50 -15 8 -11 19 -18 24 -15 5 4 9 1 9 -4 0 -6
-5 -11 -12 -11 -9 0 -9 -3 -1 -11 8 -8 17 -8 33 1 12 6 24 9 28 6 3 -3 0 -6
-7 -6 -7 0 -9 -5 -5 -12 4 -6 3 -8 -4 -4 -14 9 -24 -8 -16 -28 6 -15 8 -15 21
1 8 10 12 13 9 7 -10 -21 54 -40 66 -21 5 8 8 6 8 -5 0 -10 -7 -18 -15 -18 -8
0 -15 -7 -15 -15 0 -8 -4 -15 -10 -15 -5 0 -10 -5 -10 -11 0 -6 15 -9 34 -8
19 2 38 0 42 -4 4 -4 2 -7 -6 -7 -10 0 -10 -3 0 -15 10 -12 15 -13 28 -3 13
11 14 10 10 -2 -3 -8 -1 -23 4 -33 8 -17 7 -17 -12 -7 -12 6 -24 18 -27 26 -3
8 -9 14 -15 14 -5 0 -6 -6 -1 -12 4 -7 6 -20 5 -30 -2 -9 2 -20 9 -24 8 -4 9
-3 5 4 -4 7 -2 12 3 12 6 0 11 -7 11 -15 0 -9 6 -18 14 -21 7 -3 14 -16 14
-29 0 -14 -4 -22 -9 -19 -5 3 -9 0 -9 -5 0 -6 7 -11 15 -11 8 0 15 -5 15 -11
0 -5 -6 -7 -12 -4 -7 4 -3 -2 10 -13 21 -20 31 -39 13 -28 -4 3 -17 -1 -27 -8
-13 -10 -23 -11 -31 -4 -7 6 -13 8 -13 4 0 -3 -1 -9 -2 -13 -2 -4 9 -8 24 -8
15 -1 25 1 23 6 -3 4 2 10 10 13 15 5 15 -13 -1 -61 -2 -7 1 -13 6 -13 6 0 10
4 10 8 0 5 7 9 15 9 8 0 15 -4 15 -9 0 -4 -4 -8 -10 -8 -5 0 -10 -5 -10 -12 0
-6 3 -8 7 -5 3 4 12 -1 20 -11 8 -9 12 -12 9 -6 -3 7 3 14 14 17 11 3 19 2 18
-2 -2 -18 4 -22 17 -11 19 16 38 1 29 -23 -5 -13 -10 -14 -26 -6 -15 8 -19 8
-14 0 4 -6 0 -11 -8 -11 -9 0 -16 5 -16 10 0 6 -5 10 -11 10 -6 0 -9 -7 -5
-15 3 -8 0 -15 -7 -16 -8 0 -9 -2 -1 -5 7 -3 9 -14 6 -26 -4 -18 -2 -20 19
-15 19 5 27 1 34 -16 8 -16 20 -23 48 -24 22 -1 35 2 32 7 -4 6 -4 10 -1 10 3
0 10 -10 17 -21 9 -17 8 -23 -2 -30 -11 -7 -10 -9 4 -9 10 0 16 -4 12 -9 -3
-6 6 -8 22 -5 36 7 25 -4 -16 -16 -19 -5 -31 -5 -31 1 0 5 -5 9 -11 9 -5 0 -7
-4 -4 -10 3 -5 -2 -10 -12 -11 -11 0 -13 -3 -5 -6 6 -2 9 -10 6 -16 -5 -8 -2
-8 7 1 16 15 33 16 23 1 -4 -8 1 -9 16 -4 20 6 21 5 11 -14 -7 -12 -19 -21
-29 -22 -14 0 -13 -2 3 -8 12 -5 26 -4 34 3 11 8 13 8 7 -1 -4 -8 -2 -11 6 -8
7 3 27 1 43 -4 17 -5 24 -10 17 -10 -7 -1 -10 -6 -6 -13 5 -8 2 -9 -9 -5 -22
8 -22 -9 -1 -21 24 -13 8 -31 -21 -26 -27 5 -32 -5 -12 -25 10 -11 9 -12 -2
-6 -11 6 -13 4 -8 -8 3 -10 2 -17 -2 -17 -14 0 -23 -33 -11 -40 8 -5 6 -9 -5
-13 -9 -4 -13 -3 -10 3 3 6 1 10 -5 10 -7 0 -8 6 -1 18 7 14 6 18 -9 19 -16 1
-18 -2 -9 -24 10 -26 -2 -53 -24 -53 -6 0 -8 3 -4 6 3 4 0 13 -8 20 -15 15
-26 18 -22 6 1 -4 -8 -20 -20 -36 -15 -18 -23 -23 -23 -13 0 19 -24 29 -39 14
-8 -8 -11 -8 -11 1 0 7 -4 12 -9 12 -4 0 -7 -11 -6 -25 3 -23 2 -24 -21 -8
-13 8 -24 23 -25 32 0 10 -2 11 -6 3 -2 -6 -8 -10 -12 -7 -5 2 -7 -6 -6 -19 2
-19 -1 -22 -24 -21 -32 2 -93 -21 -104 -40 -4 -8 -13 -15 -20 -15 -7 0 -6 4 3
10 12 8 12 10 1 10 -23 0 -91 -23 -86 -29 2 -4 -9 -6 -23 -5 -15 1 -33 -3 -39
-9 -9 -6 -18 -6 -27 2 -10 8 -16 9 -21 1 -3 -5 -16 -10 -28 -10 -18 0 -19 2
-7 11 12 8 10 9 -8 4 -12 -4 -32 -7 -45 -9 -13 -1 -28 -6 -35 -10 -7 -4 -22
-6 -35 -5 -52 6 -144 -27 -153 -54 -3 -9 -10 -15 -15 -12 -5 4 -9 -3 -9 -14 0
-14 6 -21 19 -21 25 0 38 -20 20 -31 -10 -6 -3 -9 21 -10 34 0 88 -17 61 -18
-9 -1 -12 -9 -9 -26 3 -14 1 -28 -3 -31 -5 -3 -9 -12 -9 -20 0 -10 5 -12 13
-8 8 6 8 3 -1 -9 -8 -9 -11 -20 -8 -26 9 -14 46 -1 46 17 0 8 3 13 6 9 4 -3 3
-14 -1 -24 -5 -10 -7 -21 -7 -25 1 -5 -3 -8 -9 -8 -5 0 -7 -4 -4 -10 10 -16
21 -12 31 10 7 14 13 17 24 10 13 -8 12 -10 -2 -10 -10 0 -18 -7 -18 -16 0
-12 -7 -15 -24 -12 -18 4 -23 1 -18 -10 4 -11 1 -13 -9 -7 -8 5 -3 -4 10 -18
13 -15 28 -24 32 -21 5 3 9 0 9 -5 0 -14 -15 -14 -43 0 -20 9 -20 9 -5 -4 10
-8 15 -17 11 -20 -3 -4 2 -7 12 -7 14 0 16 -3 8 -11 -9 -9 -7 -18 5 -37 16
-25 16 -26 -2 -19 -14 6 -16 5 -8 -5 15 -19 -5 -32 -53 -36 -21 -2 -46 -8 -55
-13 -10 -6 -1 -8 30 -6 50 5 73 -1 64 -14 -3 -5 -2 -9 3 -8 24 4 43 -3 43 -17
0 -8 -4 -12 -10 -9 -5 3 -10 1 -10 -4 0 -6 5 -11 10 -11 6 0 10 -9 10 -20 0
-13 -7 -20 -20 -20 -12 0 -20 -7 -21 -17 0 -11 -3 -13 -6 -6 -3 10 -10 9 -26
-1 -12 -8 -40 -18 -62 -21 -58 -11 -187 -12 -207 -3 -9 5 -19 4 -23 -2 -3 -5
-12 -10 -18 -10 -7 0 -6 4 3 10 8 5 10 10 4 10 -5 0 -19 -7 -30 -15 -12 -9
-14 -14 -6 -15 7 0 10 -4 7 -10 -3 -5 1 -10 10 -10 9 0 13 -4 10 -10 -7 -12
-7 -12 65 -16 30 -1 57 -3 59 -3 9 -2 -33 -41 -44 -41 -7 0 -18 -6 -25 -14 -6
-8 -19 -13 -28 -10 -9 3 -4 -2 12 -12 18 -10 58 -18 104 -20 54 -2 80 -8 95
-21 11 -10 17 -12 13 -5 -7 11 -4 11 12 1 11 -7 19 -21 17 -31 -2 -10 1 -18 6
-18 6 0 7 -9 4 -20 -5 -17 -2 -20 22 -21 26 -1 26 -1 5 -7 -13 -4 -23 -11 -22
-16 1 -5 -4 -13 -12 -17 -10 -7 -9 -9 4 -9 10 0 22 -9 28 -20 8 -15 15 -18 28
-11 19 10 45 4 37 -9 -3 -5 -1 -12 5 -15 6 -4 10 -3 9 2 -4 24 4 34 10 13 5
-19 14 -25 36 -26 17 0 29 -6 27 -12 -3 -16 4 -15 32 3 20 13 23 13 23 0 0 -8
-6 -15 -14 -15 -7 0 -13 -5 -13 -11 0 -5 4 -8 9 -5 13 8 42 -4 35 -15 -3 -5 0
-9 6 -9 6 0 8 -4 5 -10 -3 -6 1 -7 10 -4 10 4 14 13 10 23 -4 12 -3 13 5 5 7
-7 8 -19 1 -36 -10 -25 -6 -38 11 -38 4 0 7 5 6 11 -2 6 6 13 17 15 11 1 21 8
24 15 2 8 5 8 11 -1 10 -16 66 2 62 19 -1 6 2 12 8 12 20 3 26 5 73 29 26 13
47 30 47 37 0 8 3 12 8 9 9 -6 50 16 54 29 2 6 7 9 12 7 5 -2 5 5 2 15 -4 9
-4 14 0 10 4 -4 14 -1 22 6 11 8 14 8 9 0 -4 -6 -2 -15 4 -19 8 -4 9 -3 5 4
-9 16 29 52 56 53 22 1 22 1 -2 9 -22 7 -22 8 -5 10 11 1 23 2 27 1 4 0 3 10
-2 24 -6 16 -6 27 2 31 6 4 8 3 4 -4 -3 -6 -3 -13 2 -16 4 -2 12 15 18 40 6
24 7 44 3 44 -4 0 -5 9 -2 20 3 11 10 17 17 13 6 -4 5 1 -3 10 -12 15 -11 20
3 35 18 21 21 37 5 26 -8 -4 -9 1 -4 16 5 15 2 26 -6 32 -11 8 -11 11 -1 15
10 4 10 8 0 21 -7 9 -8 13 -3 10 6 -4 16 5 22 18 11 23 10 24 -9 18 -14 -4
-18 -2 -14 5 4 6 15 11 24 11 16 1 15 2 -1 14 -15 12 -16 14 -2 20 8 3 15 1
15 -5 0 -5 6 -4 14 3 7 7 11 19 8 27 -3 9 -1 12 6 7 7 -4 9 1 7 16 -3 13 -9
24 -15 26 -6 2 -7 8 -4 14 4 6 1 14 -6 18 -17 10 -3 32 18 28 10 -1 28 4 40
11 13 7 43 14 66 16 23 1 52 6 64 9 17 6 21 4 16 -8 -4 -11 0 -16 11 -16 10 0
13 5 9 12 -5 8 -2 9 10 5 14 -6 17 -3 12 10 -5 15 -4 15 9 -1 8 -11 15 -16 15
-10 0 5 5 2 10 -6 7 -11 10 -11 10 -2 0 7 5 10 10 7 6 -3 10 -10 10 -16 0 -12
-37 -12 -45 1 -4 6 -11 8 -16 4 -6 -3 -3 -12 8 -19 10 -7 21 -11 24 -9 4 2 5
-12 3 -31 -2 -25 1 -33 11 -29 14 6 41 -33 31 -43 -3 -4 -1 -12 6 -20 9 -11 7
-12 -8 -7 -18 6 -17 6 1 -9 15 -11 22 -12 28 -4 4 7 5 -1 1 -16 -4 -20 -3 -27
6 -25 7 2 15 -3 18 -11 3 -9 0 -11 -9 -7 -8 4 -5 0 6 -9 11 -9 20 -27 20 -41
0 -16 8 -29 24 -37 32 -16 39 -37 10 -30 -18 5 -21 3 -16 -10 4 -10 1 -17 -6
-17 -8 0 -6 -4 3 -10 13 -9 13 -10 0 -10 -12 -1 -11 -3 3 -11 9 -6 15 -14 12
-19 -3 -5 0 -12 6 -16 7 -4 9 -3 6 3 -4 6 -1 13 6 16 8 3 14 -2 14 -10 0 -9
-9 -18 -19 -21 -21 -5 -23 -17 -6 -28 7 -4 8 -3 4 4 -4 7 -3 12 2 12 6 0 12
-7 16 -15 4 -10 -1 -15 -16 -15 -20 0 -20 -1 -4 -19 10 -11 15 -25 11 -30 -3
-6 1 -11 11 -11 10 0 14 -3 10 -7 -4 -5 -13 -8 -19 -8 -6 0 -11 -9 -11 -20 0
-23 34 -85 47 -85 5 0 6 -8 3 -17 -4 -10 -4 -14 0 -10 9 8 34 -11 34 -26 0 -6
-3 -7 -7 -4 -3 4 -12 2 -20 -4 -8 -8 -13 -8 -13 -1 0 6 6 12 13 15 6 2 10 7 7
9 -3 3 -14 2 -24 -2 -19 -6 -19 -7 2 -28 12 -12 18 -22 14 -22 -5 0 -17 -7
-28 -15 -16 -12 -16 -14 -2 -9 15 5 17 0 15 -40 -1 -25 2 -46 7 -46 5 0 6 -3
3 -6 -3 -4 -2 -15 4 -26 7 -14 7 -23 -2 -34 -15 -19 -5 -18 15 1 13 14 15 13
13 -4 0 -11 -5 -17 -9 -15 -5 3 -11 -3 -15 -12 -4 -10 -2 -19 5 -22 7 -2 9 -8
6 -14 -4 -6 0 -14 7 -19 9 -5 10 -9 2 -9 -12 0 -12 -17 0 -37 5 -7 4 -13 -2
-13 -5 0 -8 -9 -6 -20 2 -11 -1 -20 -7 -20 -6 0 -8 -3 -4 -7 8 -8 10 -9 44
-13 10 -1 12 -4 5 -6 -7 -3 -9 -12 -6 -20 3 -8 -1 -14 -8 -15 -8 0 -5 -4 6 -9
17 -7 17 -9 3 -9 -21 -1 -23 -12 -6 -29 9 -9 7 -12 -9 -12 -12 0 -25 -4 -28
-10 -4 -6 1 -7 12 -3 16 6 17 5 3 -12 -9 -11 -10 -16 -2 -11 7 4 12 2 12 -6 0
-9 3 -9 10 2 6 9 10 10 10 3 0 -6 -5 -15 -11 -18 -6 -4 -8 -13 -5 -21 3 -8 1
-14 -5 -14 -6 0 -9 -7 -5 -15 3 -10 -1 -15 -12 -15 -12 -1 -9 -5 11 -16 15 -8
27 -17 27 -20 0 -4 -12 -4 -27 0 -16 3 -23 3 -16 0 8 -4 9 -13 1 -35 -6 -16
-8 -39 -5 -50 4 -15 2 -18 -7 -10 -9 8 -13 7 -13 -4 0 -8 4 -15 9 -15 6 0 0
-16 -12 -35 -12 -19 -18 -40 -14 -46 4 -7 3 -9 -3 -6 -6 4 -13 0 -17 -8 -3 -8
-1 -15 4 -15 6 0 10 -5 10 -11 0 -6 -13 -8 -30 -5 -21 3 -30 0 -30 -10 0 -8 6
-11 15 -8 11 5 13 2 9 -10 -3 -9 -10 -14 -14 -11 -4 3 -10 -2 -14 -10 -3 -8
-11 -15 -17 -15 -8 0 -8 4 -1 13 7 9 8 17 1 27 -9 13 -10 13 -6 0 7 -27 -22
-42 -81 -44 -31 0 -60 -5 -63 -9 -4 -5 -16 1 -27 13 -11 12 -26 19 -32 15 -7
-4 -25 5 -41 21 -22 21 -32 25 -38 16 -6 -10 -14 -8 -34 8 -15 12 -27 17 -27
12 0 -4 -15 -9 -32 -9 -51 -2 -98 -14 -99 -27 0 -6 -2 -19 -4 -28 -2 -9 4 -19
12 -22 13 -5 13 -9 2 -23 -11 -13 -11 -15 -1 -9 7 4 18 3 25 -2 18 -15 94 -21
108 -8 9 8 10 8 5 -1 -5 -9 1 -13 18 -13 14 0 28 -4 31 -10 3 -6 13 -10 21
-10 9 0 12 5 8 12 -4 7 -3 8 5 4 6 -4 9 -16 6 -26 -3 -10 -1 -21 5 -25 6 -4 9
-1 8 6 -2 6 3 14 11 17 9 3 11 0 6 -8 -6 -10 -3 -12 10 -6 14 5 16 4 7 -7 -7
-8 -8 -18 -4 -22 4 -5 2 -6 -3 -2 -6 3 -17 2 -25 -4 -13 -7 -13 -9 0 -10 8 -1
18 -1 22 -1 3 1 12 -6 19 -14 10 -13 10 -17 -2 -25 -12 -7 -12 -9 1 -9 13 0
13 -2 0 -9 -8 -6 -17 -8 -21 -5 -4 2 -11 -1 -15 -7 -4 -8 -3 -9 4 -5 8 5 13
-2 14 -18 2 -48 3 -51 13 -58 6 -5 6 -11 -2 -19 -10 -10 -9 -15 5 -26 9 -8 11
-12 5 -8 -28 14 -9 -12 32 -45 43 -35 68 -84 36 -72 -14 5 -14 3 2 -21 20 -31
22 -41 5 -31 -10 6 -10 5 -1 -8 7 -8 10 -18 6 -21 -3 -4 -1 -7 6 -7 8 0 11 -6
7 -17 -5 -13 0 -11 18 6 25 24 25 24 21 2 -2 -11 -6 -25 -9 -30 -4 -5 3 -7 14
-4 11 3 18 8 16 12 -3 4 7 7 22 8 22 1 23 0 8 -6 -14 -5 -16 -10 -7 -15 6 -4
18 -5 26 -2 10 3 12 0 8 -11 -4 -11 -3 -14 6 -9 7 5 10 2 9 -6 -2 -8 5 -12 17
-10 18 3 18 2 -2 -13 -13 -9 -23 -24 -23 -34 0 -10 -7 -18 -15 -18 -11 0 -12
4 -5 11 13 13 13 29 -1 20 -7 -4 -9 0 -5 12 3 11 1 26 -5 34 -8 11 -9 9 -3
-10 3 -14 3 -22 -1 -18 -4 4 -15 0 -24 -10 -9 -9 -23 -18 -31 -20 -8 -2 -17
-8 -19 -14 -6 -19 -63 -68 -72 -62 -5 3 -6 -2 -3 -11 4 -9 3 -15 -2 -14 -24 4
-84 -2 -83 -8 5 -31 -2 -52 -16 -47 -20 8 -19 -5 3 -29 12 -15 13 -18 2 -13
-8 4 -4 -2 10 -13 14 -11 31 -21 38 -21 7 0 10 -4 7 -10 -3 -6 -1 -10 5 -10 6
0 8 -5 5 -10 -4 -6 5 -10 19 -10 14 0 26 -5 26 -11 0 -7 8 -18 18 -26 15 -13
15 -14 0 -10 -11 4 -15 1 -13 -11 2 -9 4 -19 4 -22 1 -3 6 2 11 10 6 11 9 4 7
-22 -1 -20 -6 -40 -10 -44 -12 -13 -8 -24 8 -18 9 4 15 0 15 -10 0 -9 -3 -15
-7 -15 -23 4 -43 -2 -38 -11 3 -5 1 -10 -4 -10 -6 0 -11 -11 -11 -25 0 -21 -5
-25 -27 -25 -24 -1 -26 -2 -10 -11 16 -10 16 -12 -9 -38 -24 -26 -33 -29 -96
-29 -50 -1 -71 3 -74 13 -3 7 -23 16 -45 20 -21 4 -39 11 -39 17 0 5 -8 8 -17
7 -31 -3 -38 1 -23 12 12 8 10 9 -10 7 -15 -2 -24 2 -23 9 2 7 -4 10 -12 7 -8
-4 -17 1 -21 10 -3 9 -10 13 -16 10 -5 -3 -18 3 -29 15 -11 12 -24 21 -30 21
-6 0 -7 5 -3 12 5 8 2 9 -11 4 -11 -4 -22 -2 -27 6 -6 10 -10 10 -18 -2 -5 -8
-10 -10 -10 -3 0 6 -9 9 -22 5 -13 -3 -19 -1 -15 6 8 12 -19 10 -30 -3 -5 -4
-1 -4 7 0 13 8 13 7 1 -8 -17 -22 -32 -22 -24 0 4 11 3 14 -5 9 -7 -4 -12 -2
-12 5 0 7 -9 3 -20 -9 -12 -12 -28 -22 -38 -21 -13 0 -11 2 5 9 12 5 28 18 35
29 9 15 16 17 30 10 14 -7 20 -6 24 6 3 8 10 13 14 10 4 -3 10 1 13 9 7 18
-12 26 -38 15 -12 -4 -14 -8 -6 -8 11 -1 12 -4 4 -12 -6 -6 -16 -8 -23 -4 -14
9 16 45 38 45 11 0 8 6 -8 20 -13 11 -26 20 -30 20 -9 0 -36 -31 -43 -50 -4
-12 -6 -11 -6 3 -1 10 -5 16 -10 12 -5 -3 -13 0 -17 6 -5 9 0 10 14 7 12 -4
22 -2 22 3 0 5 -4 9 -10 9 -5 0 -10 6 -10 14 0 19 17 29 31 20 8 -4 7 -9 -2
-16 -11 -7 -9 -8 4 -4 10 3 26 6 36 6 10 0 17 9 18 23 2 21 1 21 -12 3 -17
-23 -47 -15 -39 11 5 14 4 15 -4 4 -11 -15 -62 -8 -62 9 0 6 -5 10 -11 10 -5
0 -8 -4 -5 -9 4 -5 -3 -7 -14 -4 -16 4 -18 9 -9 19 6 7 16 11 23 8 7 -3 19 2
26 11 14 17 40 20 40 5 0 -5 -5 -9 -11 -7 -6 1 -13 -2 -15 -8 -2 -5 12 -11 31
-11 29 -1 32 1 20 10 -18 13 -11 41 12 50 12 5 13 4 5 -7 -15 -18 -3 -30 15
-16 10 9 21 6 45 -12 37 -27 95 -33 90 -10 -3 12 0 12 12 2 16 -13 32 1 21 19
-6 9 8 14 28 11 4 0 7 3 7 7 0 4 14 9 30 10 34 3 106 42 77 42 -14 0 -16 6
-11 28 4 21 3 24 -5 12 -9 -12 -11 -10 -11 12 0 15 -5 30 -12 34 -7 4 -8 3 -4
-4 9 -15 3 -15 -29 0 -22 10 -28 9 -35 -2 -7 -12 -12 -12 -22 -2 -6 6 -22 12
-35 12 -13 0 -23 6 -23 13 0 9 -2 9 -9 -1 -4 -8 -12 -14 -16 -14 -4 0 -12 6
-16 14 -5 7 -9 8 -9 2 0 -6 -7 -11 -15 -11 -8 0 -15 4 -15 8 0 5 -7 6 -15 3
-12 -5 -13 -9 -4 -20 10 -12 9 -13 -5 -8 -9 3 -16 10 -16 15 0 5 -4 9 -9 9 -5
0 -7 -9 -4 -20 3 -11 9 -20 15 -20 5 0 3 -6 -4 -14 -8 -8 -15 -10 -19 -4 -4 7
-9 7 -13 0 -3 -6 0 -16 7 -24 7 -7 12 -18 12 -25 0 -15 -15 -30 -15 -15 0 7
-8 12 -17 11 -11 0 -13 -3 -5 -6 6 -2 12 -9 12 -14 0 -4 -7 -6 -16 -2 -10 4
-14 13 -10 28 5 19 3 22 -14 18 -23 -6 -24 -8 -9 -35 9 -16 8 -19 -2 -13 -8 6
-11 4 -7 -6 3 -8 0 -23 -8 -34 -12 -16 -14 -16 -14 -3 0 9 6 19 13 21 7 3 5 6
-5 6 -10 1 -18 6 -18 12 0 8 -5 7 -16 -2 -14 -11 -15 -10 -12 6 2 13 -5 20
-25 26 -16 4 -25 4 -21 -2 3 -5 14 -9 24 -9 13 0 17 -5 14 -15 -8 -19 -28 -19
-48 1 -9 8 -16 13 -16 11 0 -3 -3 -14 -6 -24 -5 -15 -4 -15 5 -3 9 13 11 12
11 -3 0 -11 -5 -17 -12 -14 -7 2 -12 11 -12 19 1 10 -7 15 -22 16 -17 0 -24
-6 -24 -19 0 -11 5 -19 11 -19 5 0 7 -5 4 -10 -6 -10 -61 -7 -71 3 -3 3 6 7
20 11 16 4 24 13 23 25 -1 12 -6 17 -15 14 -11 -5 -11 -7 0 -14 9 -6 6 -9 -10
-9 -15 0 -21 4 -16 12 4 7 3 8 -4 4 -7 -4 -12 -13 -12 -19 0 -7 -9 -18 -20
-24 -16 -11 -18 -10 -14 2 4 8 10 15 15 15 5 0 9 5 9 12 0 6 -7 4 -18 -5 -23
-21 -33 -22 -26 -3 4 9 -2 13 -19 11 -30 -4 -43 4 -50 30 -4 15 -5 14 -6 -7
-1 -18 4 -28 13 -28 21 0 30 -20 16 -33 -10 -9 -12 -8 -7 6 6 16 4 16 -22 2
-16 -8 -31 -20 -33 -26 -2 -7 -12 0 -21 14 -16 24 -16 26 0 20 11 -4 14 -3 9
5 -4 7 -1 12 9 12 9 0 14 -4 11 -8 -3 -5 1 -9 8 -9 8 0 12 6 9 14 -3 7 -9 13
-14 13 -4 0 -6 6 -3 14 4 11 0 13 -14 9 -20 -5 -40 13 -27 25 3 3 9 1 13 -5 4
-7 13 -9 21 -4 9 6 7 10 -10 14 -29 8 -42 -1 -36 -24 3 -11 1 -19 -4 -19 -16
0 -9 49 9 59 9 6 12 11 5 11 -7 0 -21 -10 -33 -22 -11 -12 -20 -17 -20 -10 0
6 10 21 23 33 l22 23 -27 -17 c-24 -15 -28 -15 -28 -2 0 8 -5 15 -11 15 -5 0
-7 5 -3 11 4 8 -1 9 -17 4 -13 -4 -20 -4 -16 1 4 4 -3 14 -15 22 -13 7 -15 11
-5 8 9 -3 17 -1 17 4 0 6 -4 10 -10 10 -5 0 -10 7 -10 15 0 8 -7 15 -16 15 -9
0 -12 5 -8 12 5 7 2 9 -9 5 -8 -3 -21 1 -27 8 -10 12 -9 16 4 21 9 3 13 10 10
15 -3 5 -10 7 -15 4 -5 -3 -6 1 -3 9 4 11 0 16 -10 16 -9 0 -16 -6 -16 -12 0
-9 -3 -9 -9 1 -6 10 -3 20 12 33 12 11 17 17 11 14 -7 -3 -14 1 -18 9 -3 8
-14 15 -25 15 -11 0 -23 5 -26 10 -3 6 -4 10 -1 10 2 0 13 3 23 6 15 5 15 4 3
-5 -8 -6 -10 -11 -4 -11 16 0 23 10 17 26 -3 9 -13 12 -27 9 -15 -5 -17 -4 -7
3 19 14 6 43 -15 35 -13 -5 -16 -3 -11 10 3 9 1 19 -5 23 -6 4 -8 3 -5 -2 3
-6 2 -16 -4 -24 -7 -13 -9 -12 -9 2 0 27 11 48 23 41 6 -3 7 -1 3 5 -5 9 -13
9 -27 2 -13 -7 -19 -7 -19 0 0 5 5 10 11 10 8 0 7 6 -2 17 -12 14 -12 16 1 9
8 -4 6 0 -4 8 -15 12 -16 16 -5 16 12 0 12 2 -1 9 -8 6 -18 7 -22 5 -7 -5 -12
10 -9 29 0 4 -3 7 -8 7 -5 0 -8 11 -6 25 1 17 -3 25 -13 25 -8 0 -12 3 -9 7 4
3 2 12 -4 20 -9 10 -8 13 1 13 9 0 9 4 -1 17 -11 12 -11 17 -2 20 10 4 9 9 -3
20 -8 9 -13 24 -11 34 3 11 1 19 -5 19 -5 0 -7 4 -3 9 3 5 1 12 -3 15 -5 3 -9
19 -10 37 0 17 -3 33 -6 36 -3 3 -1 14 5 24 8 16 4 24 -18 45 -15 14 -22 23
-15 19 10 -5 11 7 6 52 -3 32 -10 73 -14 91 -5 19 -6 41 -3 49 4 10 2 14 -4
10 -5 -3 -20 1 -32 9 -17 12 -19 19 -11 29 9 11 7 12 -11 8 -15 -4 -20 -3 -15
5 4 7 3 12 -3 12 -10 0 -8 31 3 49 4 5 1 11 -5 13 -11 4 -14 27 -18 126 -1 29
-5 41 -12 36 -8 -5 -8 -1 0 13 6 11 7 23 4 27 -3 3 -1 6 7 6 10 0 10 3 0 15
-6 8 -9 19 -5 25 3 5 -1 10 -10 10 -13 0 -15 18 -11 148 7 189 6 181 17 154 5
-13 6 -29 2 -34 -3 -6 -1 -8 4 -5 6 4 13 0 17 -8 3 -8 1 -17 -4 -20 -7 -4 -6
-13 0 -25 13 -25 13 -51 0 -30 -5 8 -10 12 -10 8 0 -3 -3 -14 -7 -24 -5 -13
-3 -15 7 -9 10 6 11 2 6 -19 -7 -28 5 -34 24 -12 13 16 12 96 -2 134 -4 13 -4
21 0 18 4 -2 7 11 7 29 0 18 -3 31 -7 28 -11 -6 -10 11 2 25 7 9 7 9 -2 2 -18
-15 -32 -12 -19 3 6 8 8 17 4 21 -4 4 1 4 10 0 10 -3 17 -3 15 2 -1 5 2 36 7
69 5 33 7 66 6 74 -1 8 3 18 11 22 10 7 10 9 0 9 -8 0 -11 9 -7 28 2 15 8 50
11 77 4 28 12 59 17 70 6 11 10 26 9 32 -2 7 2 22 8 33 8 15 8 20 -2 20 -9 0
-9 3 2 10 12 8 12 10 1 10 -11 0 -10 4 4 20 9 10 15 26 11 35 -3 9 1 18 9 21
8 4 12 11 8 18 -11 17 -12 36 -3 36 5 0 12 10 16 23 4 12 6 22 4 22 -2 0 2 11
9 24 7 13 9 21 4 18 -16 -10 -2 52 15 65 13 11 15 10 10 -4 -5 -11 -2 -15 10
-14 23 4 26 23 4 30 -10 4 -19 13 -19 21 0 18 13 20 20 3 4 -10 6 -10 6 0 1 8
-8 16 -19 19 -21 6 -26 29 -10 53 5 8 10 11 10 7 0 -4 6 -2 13 5 8 7 13 24 12
38 -2 34 5 51 19 43 6 -4 5 1 -3 10 -8 10 -10 24 -6 34 5 10 9 28 10 41 1 12
10 31 19 41 9 10 18 28 19 40 1 13 6 20 14 17 10 -4 12 2 7 22 -4 21 -3 24 5
12 9 -12 11 -11 11 8 0 14 4 21 11 16 6 -4 9 1 8 12 -4 25 29 74 50 75 11 0
12 2 3 6 -9 4 -10 8 -2 18 8 9 8 15 0 20 -15 9 -12 25 4 19 21 -8 39 41 23 64
-7 9 -6 11 6 6 18 -7 42 30 33 52 -3 8 -1 14 3 14 5 0 11 7 15 15 3 8 2 14 -2
12 -4 -1 -8 3 -9 8 0 6 4 9 10 7 7 -1 4 4 -5 11 -16 12 -16 16 -2 35 8 12 22
22 30 22 9 0 14 7 12 17 -2 10 10 30 27 46 17 16 23 27 13 24 -16 -6 -32 15
-21 27 11 11 24 6 18 -6 -4 -7 0 -5 8 5 8 10 12 27 9 39 -3 12 -1 19 4 15 6
-3 15 3 22 14 8 12 9 19 1 19 -5 0 -7 5 -4 10 4 6 11 7 17 4 8 -5 9 -1 5 10
-4 10 -2 27 4 38 9 16 8 19 -2 13 -8 -6 -10 -4 -4 5 4 7 8 26 7 42 -1 24 4 30
29 35 16 3 32 10 36 16 3 6 1 7 -5 3 -7 -4 -12 -1 -12 9 0 9 -4 14 -8 11 -5
-3 -9 1 -9 9 0 8 8 15 18 15 10 0 23 8 28 18 10 16 10 16 11 -2 0 -15 3 -16
15 -6 9 7 13 15 10 18 -3 3 1 12 8 20 6 9 7 13 1 9 -6 -3 -11 0 -11 8 0 10 5
11 17 5 15 -8 17 -4 14 31 -2 23 1 37 7 34 5 -4 9 0 9 7 0 10 3 9 11 -2 8 -12
9 -10 4 8 -4 13 -2 22 4 22 6 0 11 7 11 15 0 8 6 14 13 13 13 -3 13 5 1 36 -5
14 -4 17 5 12 6 -4 19 -2 28 6 20 16 16 16 38 -2 18 -15 18 -14 0 13 l-18 28
24 -3 c13 -2 30 -7 37 -12 7 -4 16 -5 19 -2 4 3 1 6 -5 6 -7 0 -12 4 -12 10 0
5 7 6 17 3 11 -4 14 -3 9 5 -4 7 -2 12 3 12 6 0 11 -4 11 -10 0 -5 3 -9 8 -9
20 3 23 -3 11 -18 -13 -16 -12 -17 3 -5 9 7 15 22 13 32 -3 13 1 17 11 13 7
-3 11 -9 8 -14z m-234 -105 c0 -8 -5 -12 -10 -9 -6 4 -8 11 -5 16 9 14 15 11
15 -7z m530 -149 c0 -8 -4 -15 -8 -15 -5 0 -9 7 -9 15 0 8 4 15 9 15 4 0 8 -7
8 -15z m110 -195 c0 -5 -7 -7 -15 -4 -8 4 -12 10 -9 15 6 11 24 2 24 -11z m20
-27 c0 -5 -5 -15 -11 -23 -9 -13 -10 -13 -6 2 3 9 1 19 -6 22 -7 2 -4 5 6 5 9
1 17 -2 17 -6z m64 -62 c-9 -9 19 -42 32 -37 8 3 14 0 14 -5 0 -7 -9 -9 -21
-6 -15 4 -19 2 -15 -9 7 -17 -15 -19 -32 -2 -9 9 -15 9 -24 0 -15 -15 -32 -16
-23 -1 4 6 -3 20 -15 31 -17 16 -19 22 -8 29 19 12 40 11 33 -2 -7 -10 30 -49
47 -49 14 0 9 40 -6 46 -8 3 -12 12 -9 19 4 11 8 12 18 2 7 -7 11 -14 9 -16z
m70 -7 c3 -8 2 -12 -4 -9 -6 3 -10 10 -10 16 0 14 7 11 14 -7z m-27 -96 c-3
-8 -6 -5 -6 6 -1 11 2 17 5 13 3 -3 4 -12 1 -19z m-31 -46 c6 -4 13 -15 17
-25 4 -9 10 -17 14 -16 29 5 34 -3 9 -16 -37 -19 -36 -20 -37 13 0 15 -3 21
-6 14 -3 -8 -9 -10 -16 -3 -7 5 -21 11 -32 15 -13 3 -11 4 7 2 19 -2 25 1 21
11 -6 14 6 17 23 5z m64 4 c0 -2 -8 -10 -17 -17 -16 -13 -17 -12 -4 4 13 16
21 21 21 13z m65 -46 c3 -6 -4 -10 -17 -10 -18 0 -20 2 -8 10 19 12 18 12 25
0z m-23 -55 c3 -14 1 -25 -3 -25 -5 0 -9 11 -9 25 0 14 2 25 4 25 2 0 6 -11 8
-25z m53 -86 c11 -16 1 -19 -13 -3 -7 8 -8 14 -3 14 5 0 13 -5 16 -11z m50
-59 c-3 -5 -1 -10 6 -10 7 0 10 -3 6 -6 -9 -9 -28 6 -22 17 4 5 8 9 11 9 3 0
2 -4 -1 -10z m-7 -61 c-19 -11 -24 -35 -9 -41 5 -1 2 -10 -7 -18 -14 -13 -15
-12 -9 3 3 9 2 19 -4 23 -12 7 18 44 35 44 6 0 3 -5 -6 -11z m-43 -39 c3 -5 1
-10 -4 -10 -6 0 -11 5 -11 10 0 6 2 10 4 10 3 0 8 -4 11 -10z m-15 -98 c0 -15
-2 -15 -10 -2 -13 20 -13 33 0 25 6 -3 10 -14 10 -23z m-115 -32 c3 -5 -1 -10
-10 -10 -9 0 -13 5 -10 10 3 6 8 10 10 10 2 0 7 -4 10 -10z m-838 -196 c-3 -3
-12 -4 -19 -1 -8 3 -5 6 6 6 11 1 17 -2 13 -5z m994 -261 c13 -16 12 -17 -3
-4 -10 7 -18 15 -18 17 0 8 8 3 21 -13z m-76 -53 c-3 -5 -12 -7 -20 -3 -21 7
-19 13 6 13 11 0 18 -4 14 -10z m260 -70 c3 -5 1 -10 -4 -10 -6 0 -11 5 -11
10 0 6 2 10 4 10 3 0 8 -4 11 -10z m-295 -35 c0 -3 -3 -4 -7 -3 -5 1 -19 -4
-32 -11 -13 -7 -21 -9 -19 -4 3 4 8 16 11 26 5 14 11 16 27 7 11 -6 20 -13 20
-15z m333 -11 c-7 -19 -10 -18 -16 5 -3 13 -1 18 9 14 7 -2 10 -11 7 -19z m14
-30 c-3 -3 -12 -4 -19 -1 -8 3 -5 6 6 6 11 1 17 -2 13 -5z m-1932 -84 c-3 -5
3 -11 14 -15 29 -9 39 -65 15 -82 -11 -8 -20 -9 -24 -3 -3 5 -16 8 -27 6 -15
-3 -20 0 -17 9 3 7 0 16 -6 20 -6 3 -9 3 -8 -2 2 -4 0 -9 -4 -10 -5 -2 -8 -1
-8 2 0 3 0 16 0 29 0 19 4 23 19 19 14 -3 20 2 25 22 4 14 11 23 16 20 6 -4 8
-10 5 -15z m2015 -150 c0 -5 -2 -10 -4 -10 -3 0 -8 5 -11 10 -3 6 -1 10 4 10
6 0 11 -4 11 -10z m-1150 -63 c0 -5 -11 -7 -25 -5 -14 3 -25 2 -25 -2 0 -4 -8
-10 -17 -14 -10 -3 -24 -9 -32 -12 -8 -4 -11 -2 -7 4 9 15 -24 24 -40 11 -11
-9 -14 -8 -14 4 0 9 8 18 18 20 31 9 142 4 142 -6z m-175 -7 c8 -13 -5 -13
-25 0 -13 8 -13 10 2 10 9 0 20 -4 23 -10z m185 -26 c0 -2 -7 -4 -15 -4 -8 0
-15 4 -15 10 0 5 7 7 15 4 8 -4 15 -8 15 -10z m-63 0 c-3 -3 -12 -4 -19 -1 -8
3 -5 6 6 6 11 1 17 -2 13 -5z m-34 -154 c9 -11 13 -20 7 -20 -5 0 -14 9 -20
20 -6 11 -9 20 -8 20 2 0 11 -9 21 -20z m-767 -77 c1 -7 -2 -11 -7 -7 -5 3 -9
12 -9 20 0 8 -4 14 -10 14 -5 0 -10 8 -10 17 0 14 4 12 17 -7 10 -14 18 -31
19 -37z m-549 -59 c-3 -3 -12 -4 -19 -1 -8 3 -5 6 6 6 11 1 17 -2 13 -5z
m2613 -24 c0 -5 -5 -10 -11 -10 -5 0 -7 5 -4 10 3 6 8 10 11 10 2 0 4 -4 4
-10z m30 -644 c0 -2 -7 -7 -16 -10 -8 -3 -12 -2 -9 4 6 10 25 14 25 6z m-43
-132 c-3 -3 -12 -4 -19 -1 -8 3 -5 6 6 6 11 1 17 -2 13 -5z m93 -588 c0 -3 -4
-8 -10 -11 -5 -3 -10 -1 -10 4 0 6 5 11 10 11 6 0 10 -2 10 -4z m-30 -10 c0
-2 -8 -10 -17 -17 -16 -13 -17 -12 -4 4 13 16 21 21 21 13z m-1789 -93 c13
-16 12 -17 -3 -4 -10 7 -18 15 -18 17 0 8 8 3 21 -13z m1694 -143 c3 -6 -1 -7
-9 -4 -18 7 -21 14 -7 14 6 0 13 -4 16 -10z m-1027 -200 c10 -1 2 -9 -17 -19
-21 -11 -29 -20 -21 -23 18 -6 3 -28 -18 -27 -11 0 -12 2 -4 6 6 2 10 9 6 14
-3 5 -7 18 -9 29 -3 17 -1 19 15 10 13 -7 21 -7 25 0 3 5 -2 10 -12 10 -15 0
-16 2 -3 10 10 6 16 6 18 0 2 -6 11 -10 20 -10z m-228 -31 c-7 -11 -14 -18
-17 -15 -3 3 0 12 7 21 18 21 23 19 10 -6z m145 -12 c18 -4 17 -5 -3 -6 -13 0
-20 -5 -17 -11 3 -5 2 -10 -3 -10 -5 0 -12 11 -14 25 -4 18 -2 22 6 16 6 -5
20 -11 31 -14z m-225 -7 c-6 -11 -13 -20 -16 -20 -2 0 0 9 6 20 6 11 13 20 16
20 2 0 0 -9 -6 -20z m137 0 c-1 -11 -5 -20 -9 -20 -10 0 -10 4 -2 24 8 22 13
20 11 -4z m-107 -30 c0 -5 -2 -10 -4 -10 -3 0 -8 5 -11 10 -3 6 -1 10 4 10 6
0 11 -4 11 -10z m73 -34 c4 -10 1 -13 -9 -9 -15 6 -19 23 -5 23 5 0 11 -7 14
-14z m53 -1 c-11 -8 -22 -12 -25 -9 -6 6 19 24 34 24 6 -1 1 -7 -9 -15z m94
-20 c-7 -8 -17 -12 -22 -9 -5 3 -1 12 9 19 22 17 30 11 13 -10z m87 19 c-3 -3
-12 -4 -19 -1 -8 3 -5 6 6 6 11 1 17 -2 13 -5z m-147 -24 c-29 -8 -48 -1 -30
10 7 4 22 5 34 2 20 -6 20 -6 -4 -12z m253 14 c11 -11 -3 -24 -18 -18 -8 4
-12 10 -9 15 6 11 18 12 27 3z m-461 -31 c-10 -4 -10 -8 -1 -19 15 -18 10 -22
-20 -15 -23 6 -23 7 -7 24 10 9 23 17 29 16 8 0 8 -2 -1 -6z m438 -2 c0 -5 -8
-15 -17 -22 -16 -12 -17 -12 -6 2 7 9 10 19 6 22 -3 4 -1 7 5 7 7 0 12 -4 12
-9z m-145 -31 c3 -6 -1 -7 -9 -4 -18 7 -21 14 -7 14 6 0 13 -4 16 -10z m1145
2 c0 -16 -13 -22 -25 -12 -8 7 -12 5 -12 -5 0 -8 5 -15 10 -15 6 0 7 -3 4 -6
-11 -11 -36 16 -30 32 5 15 53 20 53 6z m-1243 -8 c-3 -3 -12 -4 -19 -1 -8 3
-5 6 6 6 11 1 17 -2 13 -5z m192 -18 c7 -8 8 -17 3 -20 -6 -3 -12 3 -15 14 -6
24 -4 25 12 6z m-327 -16 c32 -15 44 -17 49 -8 5 7 10 10 13 7 3 -2 1 -11 -4
-19 -8 -12 -13 -13 -30 -2 -27 16 -43 15 -37 -2 4 -10 1 -13 -9 -9 -10 4 -12
0 -8 -11 7 -19 25 -21 42 -4 9 9 12 4 12 -25 0 -40 13 -48 29 -19 9 15 10 14
8 -5 -1 -13 -5 -23 -9 -23 -11 0 -6 -22 9 -37 16 -18 40 -16 47 4 6 14 9 13
23 -8 9 -13 23 -28 31 -33 12 -7 9 -13 -13 -32 -17 -14 -22 -24 -14 -24 10 -1
8 -5 -5 -15 -11 -8 -15 -15 -9 -15 7 0 14 4 18 10 3 5 13 6 23 3 13 -4 13 -2
-3 10 -16 13 -17 17 -5 18 8 1 18 1 23 0 4 0 7 4 7 9 0 6 4 10 10 10 5 0 9
-10 7 -22 -1 -15 4 -23 17 -26 15 -3 17 0 12 13 -5 15 -4 16 9 5 8 -7 13 -16
10 -20 -3 -5 -1 -11 5 -15 6 -4 8 -11 4 -16 -3 -5 -10 -7 -15 -3 -5 3 -7 10
-4 15 9 13 -9 11 -23 -3 -9 -9 -12 -9 -12 0 0 7 -5 12 -11 12 -8 0 -8 -5 1
-15 7 -8 10 -21 7 -28 -5 -13 5 -17 46 -18 9 0 15 -4 12 -10 -4 -5 0 -9 7 -9
10 0 10 -2 -1 -9 -9 -6 -10 -11 -2 -15 10 -7 16 7 12 28 -1 5 8 6 19 3 18 -5
19 -3 8 10 -11 14 -11 15 2 11 18 -6 21 -34 3 -31 -6 2 -11 -6 -10 -17 1 -14
4 -16 14 -9 9 8 11 5 8 -13 -4 -21 -3 -21 9 -5 19 24 21 22 21 -23 1 -27 -3
-40 -13 -40 -8 0 -10 5 -6 13 6 9 4 9 -6 0 -12 -11 -10 -16 8 -33 13 -12 27
-17 39 -13 15 6 16 5 3 -9 -11 -12 -20 -13 -33 -6 -10 5 -21 7 -25 4 -3 -3 -1
-6 4 -6 5 0 10 -10 11 -22 1 -11 8 -25 15 -29 9 -6 6 -9 -10 -9 -12 0 -25 -6
-28 -14 -3 -9 -12 -12 -21 -9 -11 4 -14 2 -9 -5 4 -6 -6 -4 -23 6 -35 19 -34
30 1 11 21 -11 22 -11 9 4 -19 24 -40 21 -51 -5 -8 -21 -9 -20 -9 9 -1 27 2
31 19 28 26 -5 26 7 -1 23 -12 8 -18 9 -14 3 3 -6 1 -11 -4 -11 -6 0 -11 -12
-11 -26 0 -14 -4 -23 -10 -19 -5 3 -10 3 -11 -2 -6 -58 -5 -61 14 -51 10 5 21
7 25 4 3 -3 0 -6 -7 -6 -9 0 -8 -4 3 -15 18 -18 32 -19 40 -2 5 9 7 9 12 -1 3
-6 11 -9 16 -6 7 5 8 2 4 -5 -5 -7 -14 -10 -21 -7 -17 6 -53 -20 -42 -30 4 -5
12 -3 16 5 16 26 51 -8 45 -43 -3 -12 -1 -15 2 -8 5 10 10 8 21 -8 13 -19 13
-24 2 -31 -11 -7 -10 -9 4 -9 20 0 24 45 5 53 -7 3 -2 6 11 6 16 1 21 -3 18
-13 -7 -19 17 -28 33 -13 10 9 11 9 6 0 -5 -8 -1 -13 9 -13 9 0 13 -4 10 -10
-3 -5 0 -10 7 -10 9 0 9 -3 -2 -10 -12 -8 -12 -10 -1 -10 8 0 11 -3 8 -7 -4
-3 1 -15 10 -26 10 -10 17 -21 16 -23 -7 -11 -2 -24 7 -19 14 9 8 39 -8 45 -8
3 -14 10 -15 15 -3 11 42 14 49 3 3 -4 10 -6 15 -3 5 4 9 2 9 -4 0 -5 -5 -11
-10 -13 -6 -2 -12 -13 -13 -26 0 -12 -4 -22 -8 -22 -4 0 -14 -2 -21 -5 -9 -4
-19 4 -26 17 -8 17 -11 19 -11 6 -1 -9 3 -19 9 -23 5 -3 7 -12 4 -20 -5 -12
27 -55 41 -55 3 0 12 0 21 0 8 0 13 -4 10 -9 -4 -5 1 -8 10 -7 8 1 19 8 23 15
6 9 10 7 14 -8 3 -13 13 -21 27 -21 11 0 18 -5 15 -10 -4 -7 -13 -7 -24 0 -14
7 -21 4 -31 -15 -7 -14 -18 -25 -24 -26 -20 -1 29 -18 55 -18 14 -1 26 -7 26
-14 0 -7 3 -25 7 -41 6 -26 5 -28 -8 -17 -11 9 -16 10 -16 2 0 -6 -5 -11 -11
-11 -5 0 -7 6 -4 13 4 6 -1 3 -9 -7 -19 -24 -20 -36 -3 -36 8 0 7 -4 -3 -10
-21 -14 -30 -12 -30 5 0 8 -8 15 -17 16 -15 0 -15 2 2 8 17 7 16 9 -12 15 -18
4 -35 12 -38 17 -4 5 -11 9 -17 9 -7 0 -7 -5 1 -14 10 -11 7 -14 -14 -12 -25
1 -36 15 -12 17 6 0 3 4 -8 9 -11 5 -14 9 -7 9 6 1 12 6 12 12 0 7 -10 9 -25
7 -13 -3 -22 -2 -20 3 3 4 -5 15 -17 23 -19 13 -20 16 -5 16 15 0 16 2 5 14
-10 12 -15 12 -23 2 -14 -18 -35 -8 -28 12 3 9 2 14 -2 9 -5 -4 -16 0 -26 9
-13 12 -15 22 -9 45 5 17 5 29 -1 29 -5 0 -9 -5 -9 -11 0 -5 -4 -7 -10 -4 -5
3 -10 2 -10 -2 0 -5 -7 -18 -15 -29 -13 -16 -14 -16 -9 -1 4 10 1 17 -7 17 -8
0 -5 6 7 15 16 13 17 16 4 25 -13 8 -12 10 4 10 13 0 16 4 11 18 -5 9 -8 26
-8 37 -1 11 -6 24 -11 28 -7 5 -3 7 9 4 11 -2 19 -8 18 -14 -1 -6 3 -13 10
-16 7 -3 13 3 13 13 0 10 -4 16 -8 14 -4 -3 -8 2 -8 10 0 9 -5 16 -11 16 -5 0
-8 4 -5 8 2 4 -7 8 -22 9 -15 0 -19 -1 -10 -4 14 -4 15 -8 5 -24 -15 -25 -27
-24 -27 1 0 17 -3 19 -19 10 -13 -7 -22 -7 -26 0 -3 5 -1 10 4 10 6 0 11 5 11
10 0 6 -16 0 -35 -12 -35 -23 -47 -42 -20 -32 8 4 15 10 15 15 0 5 5 9 12 9 9
0 9 -3 0 -12 -7 -7 -12 -20 -12 -30 0 -17 -10 -22 -39 -19 -7 2 -10 -3 -6 -9
4 -7 -2 -14 -15 -17 -16 -4 -18 -8 -8 -14 19 -13 28 -11 28 6 0 16 35 21 44 6
4 -5 -3 -7 -14 -4 -14 4 -20 1 -18 -8 2 -9 -5 -14 -18 -13 -16 0 -20 -6 -21
-34 -1 -19 -6 -39 -13 -46 -6 -6 -11 -6 -10 -1 4 21 0 27 -12 18 -19 -15 -59
-23 -52 -11 5 7 -2 9 -20 4 -19 -5 -26 -3 -26 8 0 10 -10 13 -35 11 -36 -2
-55 11 -59 42 -2 10 -11 17 -20 17 -13 -2 -14 1 -5 12 7 8 9 17 5 21 -3 4 -13
-2 -22 -13 -8 -10 -13 -14 -10 -8 7 14 -20 77 -53 123 l-24 33 24 -6 24 -6
-22 11 c-24 12 -31 29 -13 29 6 0 10 -4 10 -9 0 -6 9 -9 20 -8 20 1 20 2 -1
18 -13 9 -28 16 -33 15 -6 -2 -8 -1 -5 1 4 2 5 13 2 23 -3 12 0 20 6 20 7 0
10 -4 7 -9 -4 -5 4 -6 16 -3 18 5 19 7 6 10 -11 2 -15 9 -11 19 4 10 2 14 -5
9 -6 -3 -13 -2 -17 4 -3 5 -2 10 4 10 5 0 8 11 6 25 -2 23 6 30 29 26 5 -1 4
5 -4 14 -10 12 -16 13 -27 3 -12 -9 -13 -7 -9 17 7 36 13 41 21 16 7 -24 25
-28 25 -6 0 22 -4 30 -13 27 -4 -1 -2 8 4 20 12 22 12 22 19 3 7 -19 7 -19 19
3 10 20 9 23 -11 32 -20 8 -21 10 -3 10 12 0 45 42 40 50 -4 6 1 10 9 10 19 0
20 -4 5 -33 -9 -18 -9 -20 1 -10 7 6 18 10 24 9 6 -2 8 -1 4 1 -13 8 -9 23 7
23 8 0 19 10 25 23 10 21 10 21 -4 3 -11 -13 -22 -17 -41 -12 -14 4 -23 11
-20 16 4 6 11 8 16 5 5 -3 6 2 2 11 -4 11 -2 15 4 11 6 -4 10 1 9 11 0 9 5 16
12 15 6 -2 12 2 12 8 0 6 8 8 18 5 14 -5 14 -4 -2 9 -11 8 -15 15 -9 15 6 0
10 12 8 26 -1 14 4 32 12 40 8 8 10 14 4 14 -6 0 -7 7 -4 17 5 12 3 14 -8 8
-11 -7 -12 -6 -2 6 7 8 9 26 6 39 -4 16 -3 21 5 16 7 -4 14 4 17 21 4 15 10
36 16 45 5 10 9 25 9 33 0 21 42 19 92 -5z m168 -9 c0 -5 -7 -12 -16 -15 -14
-5 -15 -4 -4 9 14 17 20 19 20 6z m-55 -11 c3 -6 -1 -7 -9 -4 -18 7 -21 14 -7
14 6 0 13 -4 16 -10z m312 -42 c-3 -8 -6 -5 -6 6 -1 11 2 17 5 13 3 -3 4 -12
1 -19z m-370 -13 c-15 -16 -22 -11 -13 10 3 9 10 13 16 10 6 -4 5 -11 -3 -20z
m228 15 c-3 -5 -16 -10 -28 -9 -20 1 -20 2 3 9 14 4 26 8 28 9 2 1 0 -3 -3 -9z
m70 0 c-3 -5 -12 -10 -18 -10 -7 0 -6 4 3 10 19 12 23 12 15 0z m-150 -10 c3
-5 1 -10 -4 -10 -6 0 -11 5 -11 10 0 6 2 10 4 10 3 0 8 -4 11 -10z m879 -19
c-2 -3 -12 3 -22 13 -16 17 -16 18 5 5 12 -7 20 -15 17 -18z m-787 0 c16 -1 6
-28 -20 -54 -21 -21 -25 -20 -31 14 -2 13 -8 23 -13 22 -5 -1 -10 4 -10 11 0
11 22 13 74 7z m46 -46 c-3 -9 -8 -14 -10 -11 -3 3 -2 9 2 15 9 16 15 13 8 -4z
m-103 -15 c0 -5 -2 -10 -4 -10 -3 0 -8 5 -11 10 -3 6 -1 10 4 10 6 0 11 -4 11
-10z m80 0 c0 -5 -7 -7 -15 -4 -8 4 -15 8 -15 10 0 2 7 4 15 4 8 0 15 -4 15
-10z m5 -80 c3 -6 -1 -7 -9 -4 -18 7 -21 14 -7 14 6 0 13 -4 16 -10z m-5 -31
c0 -6 -4 -7 -10 -4 -5 3 -10 11 -10 16 0 6 5 7 10 4 6 -3 10 -11 10 -16z m60
-23 c0 -9 -10 -13 -25 -12 -23 1 -24 2 -8 14 22 16 33 15 33 -2z m-60 -12 c0
-2 -9 -4 -20 -4 -11 0 -20 4 -20 9 0 5 9 7 20 4 11 -3 20 -7 20 -9z m105 6
c-3 -5 -14 -10 -23 -9 -14 0 -13 2 3 9 27 11 27 11 20 0z m-155 -32 c10 -3 8
-6 -7 -10 -26 -7 -48 6 -38 21 4 8 11 9 18 3 7 -5 19 -11 27 -14z m184 1 c-3
-6 0 -15 7 -20 11 -7 10 -9 -3 -9 -11 0 -18 8 -18 20 0 11 5 20 11 20 5 0 7
-5 3 -11z m-80 -41 c-3 -4 -12 -8 -20 -8 -8 0 -13 4 -10 8 3 5 12 9 20 9 8 0
13 -4 10 -9z m216 -34 c0 -8 -5 -12 -10 -9 -6 4 -8 11 -5 16 9 14 15 11 15 -7z
m-223 -36 c-3 -8 -6 -5 -6 6 -1 11 2 17 5 13 3 -3 4 -12 1 -19z m-7 -113 c7
-9 8 -15 2 -15 -5 0 -12 7 -16 15 -3 8 -4 15 -2 15 2 0 9 -7 16 -15z m30 -50
c-14 -17 -30 -20 -30 -4 0 5 4 8 9 4 5 -3 12 -1 16 5 3 5 9 10 12 10 3 0 0 -7
-7 -15z m-48 -14 c8 12 9 12 6 0 -6 -22 -28 -25 -27 -4 0 12 2 14 6 4 5 -11 7
-11 15 0z m53 -69 c-3 -3 -11 0 -18 7 -9 10 -8 11 6 5 10 -3 15 -9 12 -12z
m-77 -17 c-2 -25 -21 -34 -33 -15 -3 6 1 10 9 10 9 0 16 7 16 15 0 8 2 15 5
15 3 0 4 -11 3 -25z m66 -14 c4 -5 -3 -7 -14 -4 -23 6 -26 13 -6 13 8 0 17 -4
20 -9z m64 -60 c0 -3 1 -8 2 -11 9 -24 6 -38 -9 -37 -20 1 -26 54 -5 54 7 0
13 -3 12 -6z m12 -172 c0 -18 -2 -19 -15 -9 -8 7 -15 16 -15 21 0 5 7 9 15 9
9 0 15 -9 15 -21z m-400 -9 c0 -5 -4 -10 -10 -10 -5 0 -10 5 -10 10 0 6 5 10
10 10 6 0 10 -4 10 -10z m1134 -55 c-4 -8 -1 -15 5 -15 7 0 5 -9 -5 -25 -15
-23 -53 -38 -39 -15 3 6 1 10 -5 10 -6 0 -8 5 -5 10 8 13 -8 13 -21 0 -7 -7
-11 -6 -11 4 0 8 9 17 19 19 10 3 18 2 18 -3 0 -10 31 -22 38 -15 3 3 -3 12
-14 21 -10 8 -14 13 -7 10 6 -4 14 -2 18 4 9 15 15 12 9 -5z m-968 -33 c-17
-16 -18 -16 -5 5 7 12 15 20 18 17 3 -2 -3 -12 -13 -22z m949 -52 c3 -6 -1 -7
-9 -4 -18 7 -21 14 -7 14 6 0 13 -4 16 -10z m-589 -97 c8 -14 7 -22 -7 -36
-11 -12 -19 -15 -24 -8 -3 6 -1 11 5 11 6 0 8 5 4 12 -4 7 -3 8 4 4 7 -4 12
-2 12 3 0 6 -4 11 -10 11 -5 0 -10 5 -10 10 0 16 14 12 26 -7z m2159 -1233 c3
-6 -1 -7 -9 -4 -18 7 -21 14 -7 14 6 0 13 -4 16 -10z m16 -37 c13 -16 12 -17
-3 -4 -17 13 -22 21 -14 21 2 0 10 -8 17 -17z m-964 -149 c-3 -3 -12 -4 -19
-1 -8 3 -5 6 6 6 11 1 17 -2 13 -5z m493 -43 c7 -15 6 -23 -6 -35 -18 -18 -54
-21 -54 -5 0 6 9 8 21 4 16 -5 19 -4 14 5 -6 9 -4 11 6 5 12 -8 12 -6 1 8 -8
9 -11 21 -7 27 9 14 13 13 25 -9z m-75 -1 c-3 -5 -1 -10 5 -10 6 0 8 -5 4 -11
-4 -8 -9 -7 -15 2 -12 19 -11 29 2 29 5 0 7 -4 4 -10z m35 -81 c0 -5 -4 -9 -8
-9 -5 0 -9 7 -9 15 0 8 4 12 9 9 4 -3 8 -9 8 -15z m-155 -89 c3 -5 1 -10 -4
-10 -6 0 -11 5 -11 10 0 6 2 10 4 10 3 0 8 -4 11 -10z m-438 -72 c-3 -8 -6 -5
-6 6 -1 11 2 17 5 13 3 -3 4 -12 1 -19z m43 1 c13 -9 12 -10 -2 -5 -12 3 -18
0 -18 -10 0 -10 6 -14 15 -11 8 4 17 2 20 -3 4 -6 -8 -10 -25 -10 -26 0 -31
-3 -26 -16 5 -14 4 -15 -9 -4 -8 7 -13 16 -10 20 2 4 -8 5 -23 3 -26 -3 -26
-3 -4 7 15 6 21 14 16 22 -6 9 -3 9 9 -1 14 -11 18 -11 23 3 7 19 14 20 34 5z
m1270 -53 c0 -11 -19 -15 -25 -6 -3 5 1 10 9 10 9 0 16 -2 16 -4z"/>
<path d="M4171 7294 c13 -16 39 -19 39 -5 0 5 -11 11 -25 13 -20 4 -23 3 -14
-8z"/>
<path d="M4136 7252 c-3 -5 8 -12 24 -14 17 -3 30 -1 30 4 0 4 -4 8 -9 8 -5 0
-16 3 -24 6 -8 3 -18 1 -21 -4z"/>
<path d="M4241 7241 c-7 -5 1 -8 19 -8 16 0 30 3 30 7 0 9 -34 10 -49 1z"/>
<path d="M4355 7074 c19 -14 19 -15 -3 -21 -16 -4 -20 -8 -12 -13 7 -4 21 -1
31 8 17 15 17 16 1 28 -9 8 -21 13 -27 13 -5 0 -1 -6 10 -15z"/>
<path d="M4333 7002 c-8 -5 -4 -11 13 -19 21 -10 23 -9 13 8 -11 22 -10 21
-26 11z"/>
<path d="M4376 6985 c4 -8 11 -15 16 -15 6 0 5 6 -2 15 -7 8 -14 15 -16 15 -2
0 -1 -7 2 -15z"/>
<path d="M4581 6384 c0 -11 3 -14 6 -6 3 7 2 16 -1 19 -3 4 -6 -2 -5 -13z"/>
<path d="M4482 6372 c-9 -6 -5 -12 15 -20 24 -11 26 -10 11 1 -10 8 -15 17
-11 20 9 9 1 8 -15 -1z"/>
<path d="M4282 6331 c2 -8 9 -16 17 -19 8 -3 11 0 7 7 -4 6 -2 11 3 11 6 0 11
4 11 8 0 4 -9 8 -20 8 -13 0 -20 -6 -18 -15z"/>
<path d="M4400 6336 c0 -2 7 -7 16 -10 8 -3 12 -2 9 4 -6 10 -25 14 -25 6z"/>
<path d="M4340 6319 c0 -5 5 -7 10 -4 6 3 10 8 10 11 0 2 -4 4 -10 4 -5 0 -10
-5 -10 -11z"/>
<path d="M3253 6167 c-3 -5 2 -16 11 -25 16 -16 17 -16 10 2 -5 12 -4 17 3 13
5 -3 10 0 10 7 0 15 -25 17 -34 3z"/>
<path d="M3630 6109 c0 -5 5 -7 10 -4 6 3 10 8 10 11 0 2 -4 4 -10 4 -5 0 -10
-5 -10 -11z"/>
<path d="M3680 6079 c0 -5 5 -7 10 -4 6 3 10 8 10 11 0 2 -4 4 -10 4 -5 0 -10
-5 -10 -11z"/>
<path d="M3210 6000 c-8 -5 -10 -10 -5 -10 6 0 17 5 25 10 8 5 11 10 5 10 -5
0 -17 -5 -25 -10z"/>
<path d="M4850 5729 c0 -5 5 -7 10 -4 6 3 10 8 10 11 0 2 -4 4 -10 4 -5 0 -10
-5 -10 -11z"/>
<path d="M4870 5689 c0 -5 5 -7 10 -4 6 3 10 8 10 11 0 2 -4 4 -10 4 -5 0 -10
-5 -10 -11z"/>
<path d="M3675 5650 c-3 -6 1 -7 9 -4 18 7 21 14 7 14 -6 0 -13 -4 -16 -10z"/>
<path d="M3605 5640 c-3 -5 -1 -10 4 -10 6 0 11 5 11 10 0 6 -2 10 -4 10 -3 0
-8 -4 -11 -10z"/>
<path d="M3510 5606 c0 -2 6 -9 13 -15 10 -8 14 -7 14 4 0 8 -6 15 -14 15 -7
0 -13 -2 -13 -4z"/>
<path d="M3470 5550 c-9 -6 -10 -10 -3 -10 6 0 15 5 18 10 8 12 4 12 -15 0z"/>
<path d="M5005 5160 c3 -5 11 -10 16 -10 6 0 7 5 4 10 -3 6 -11 10 -16 10 -6
0 -7 -4 -4 -10z"/>
<path d="M5047 5049 c7 -7 15 -10 18 -7 3 3 -2 9 -12 12 -14 6 -15 5 -6 -5z"/>
<path d="M3993 5040 c9 -6 17 -18 17 -25 0 -8 5 -15 11 -15 16 0 -13 43 -32
48 -8 2 -6 -2 4 -8z"/>
<path d="M3985 5000 c3 -5 8 -10 11 -10 2 0 4 5 4 10 0 6 -5 10 -11 10 -5 0
-7 -4 -4 -10z"/>
<path d="M4097 4994 c-8 -8 3 -34 14 -34 5 0 9 7 9 16 0 8 4 13 9 9 5 -3 12
-1 16 5 7 11 -37 14 -48 4z"/>
<path d="M4084 4231 c20 -22 26 -25 26 -13 0 4 -10 13 -22 21 -23 14 -23 14
-4 -8z"/>
<path d="M4745 3909 c-11 -16 -1 -19 13 -3 7 8 8 14 3 14 -5 0 -13 -5 -16 -11z"/>
<path d="M3435 3510 c3 -5 8 -10 11 -10 2 0 4 5 4 10 0 6 -5 10 -11 10 -5 0
-7 -4 -4 -10z"/>
<path d="M3955 3330 c-3 -6 1 -7 9 -4 18 7 21 14 7 14 -6 0 -13 -4 -16 -10z"/>
<path d="M3990 3332 c0 -5 7 -9 15 -9 8 0 12 4 9 9 -3 4 -9 8 -15 8 -5 0 -9
-4 -9 -8z"/>
<path d="M3740 3318 c0 -9 7 -24 16 -32 15 -16 9 -21 -23 -17 -6 1 -14 -3 -18
-9 -8 -12 25 -13 44 -1 8 5 16 17 17 26 1 9 0 14 -4 11 -3 -4 -12 4 -19 16 -9
17 -12 19 -13 6z"/>
<path d="M4080 3310 c-9 -6 -10 -10 -3 -10 6 0 15 5 18 10 8 12 4 12 -15 0z"/>
<path d="M3988 3303 c7 -3 16 -2 19 1 4 3 -2 6 -13 5 -11 0 -14 -3 -6 -6z"/>
<path d="M4000 3286 c0 -2 7 -7 16 -10 8 -3 12 -2 9 4 -6 10 -25 14 -25 6z"/>
<path d="M4688 3283 c7 -3 16 -2 19 1 4 3 -2 6 -13 5 -11 0 -14 -3 -6 -6z"/>
<path d="M4737 2859 c7 -7 15 -10 18 -7 3 3 -2 9 -12 12 -14 6 -15 5 -6 -5z"/>
<path d="M3683 2968 c-2 -18 0 -20 7 -8 12 18 13 30 2 30 -4 0 -9 -10 -9 -22z"/>
<path d="M3711 2968 c0 -13 3 -17 6 -10 2 6 10 9 16 5 7 -4 6 1 -2 10 -18 22
-21 21 -20 -5z"/>
<path d="M3766 2894 c-3 -9 -13 -14 -20 -11 -8 3 -17 0 -19 -7 -4 -9 2 -11 20
-8 23 4 41 27 30 38 -2 3 -7 -3 -11 -12z"/>
<path d="M3768 2842 c-4 -12 1 -18 13 -18 23 0 23 3 5 21 -12 12 -15 12 -18
-3z"/>
<path d="M3875 2784 c17 -7 37 -13 45 -13 24 0 -21 23 -50 25 -23 2 -23 1 5
-12z"/>
<path d="M3810 2780 c0 -5 7 -10 16 -10 8 0 12 5 9 10 -3 6 -10 10 -16 10 -5
0 -9 -4 -9 -10z"/>
<path d="M3774 2694 c-10 -8 -13 -12 -5 -8 8 4 28 11 45 15 29 6 29 7 5 8 -14
1 -34 -6 -45 -15z"/>
<path d="M3834 2673 c14 -18 16 -23 5 -23 -11 0 -11 -2 1 -10 13 -8 12 -10 -2
-10 -10 0 -18 -3 -18 -8 0 -4 21 -6 46 -4 45 4 45 4 22 20 -13 8 -34 25 -48
36 l-25 21 19 -22z"/>
<path d="M3599 2663 c-13 -16 -12 -17 4 -4 16 13 21 21 13 21 -2 0 -10 -8 -17
-17z"/>
<path d="M3924 2666 c-3 -8 -1 -22 4 -31 8 -16 10 -16 15 -1 4 9 2 16 -4 16
-6 0 -9 7 -5 15 3 8 3 15 0 15 -2 0 -7 -6 -10 -14z"/>
<path d="M3844 2599 c-4 -8 1 -9 16 -4 19 6 21 4 15 -14 -8 -25 18 -39 39 -22
17 14 29 0 20 -22 -3 -8 0 -18 7 -23 8 -5 10 -3 4 6 -6 9 -2 10 16 5 20 -7 22
-6 12 7 -7 8 -9 19 -5 23 4 5 1 5 -5 1 -8 -4 -13 -1 -13 9 0 9 -4 14 -9 10 -5
-3 -12 -1 -16 5 -3 5 -1 10 5 10 6 0 8 5 5 10 -10 16 -25 2 -25 -23 0 -17 -2
-19 -9 -7 -6 8 -8 17 -5 21 2 4 -3 10 -12 13 -23 9 -32 7 -40 -5z"/>
<path d="M3987 2596 c-4 -10 -1 -13 8 -9 8 3 12 9 9 14 -7 12 -11 11 -17 -5z"/>
<path d="M4050 2555 c-12 -15 -6 -35 11 -35 6 0 8 4 5 9 -4 5 0 12 6 14 10 4
10 6 0 6 -7 1 -10 6 -7 11 9 15 -1 12 -15 -5z"/>
<path d="M4006 2515 c2 -14 0 -25 -6 -25 -5 0 -10 5 -10 10 0 6 -8 10 -17 10
-15 0 -14 -2 3 -19 24 -23 55 -11 47 19 -8 30 -22 34 -17 5z"/>
<path d="M4038 2488 c3 -12 7 -17 10 -10 2 7 8 9 14 6 6 -4 9 -1 6 7 -3 8 -12
15 -21 17 -12 2 -14 -2 -9 -20z"/>
<path d="M3945 2479 c-4 -6 -4 -13 -1 -16 3 -4 6 -1 6 5 0 6 7 9 17 5 11 -4
14 -3 9 5 -9 15 -23 15 -31 1z"/>
<path d="M4026 2438 c3 -4 11 -5 19 -1 21 7 19 12 -4 10 -11 0 -18 -5 -15 -9z"/>
<path d="M4065 2430 c-3 -5 -1 -10 4 -10 6 0 11 5 11 10 0 6 -2 10 -4 10 -3 0
-8 -4 -11 -10z"/>
<path d="M3890 2390 c0 -5 5 -10 11 -10 5 0 7 5 4 10 -3 6 -8 10 -11 10 -2 0
-4 -4 -4 -10z"/>
<path d="M3945 2285 c-3 -8 -7 -22 -10 -30 -5 -18 0 -19 27 -4 12 7 18 7 14 1
-3 -6 -3 -12 1 -15 5 -2 3 -2 -4 -1 -7 2 -15 -1 -18 -6 -4 -6 5 -10 19 -10 14
0 26 -5 26 -11 0 -6 7 -3 16 5 10 11 13 23 8 38 l-8 23 -7 -25 c-4 -14 -7 -18
-8 -10 -1 8 -10 21 -22 28 -17 11 -20 11 -14 0 7 -11 5 -11 -6 0 -12 11 -12
14 1 22 11 7 11 10 2 10 -7 0 -15 -7 -17 -15z"/>
<path d="M3907 2273 c-10 -9 -9 -23 1 -23 5 0 9 7 9 15 0 17 -1 18 -10 8z"/>
<path d="M3900 2228 c0 -6 3 -8 7 -5 3 4 12 2 20 -4 8 -7 13 -8 13 -1 0 5 -7
13 -16 16 -22 8 -24 8 -24 -6z"/>
<path d="M4031 2184 c0 -11 3 -14 6 -6 3 7 2 16 -1 19 -3 4 -6 -2 -5 -13z"/>
<path d="M4101 2178 c2 -13 0 -29 -5 -36 -4 -7 -5 -16 -2 -19 3 -4 6 -1 6 6 0
7 4 10 9 6 6 -3 8 3 6 14 -2 11 3 22 13 26 14 5 14 7 2 15 -24 15 -32 12 -29
-12z"/>
<path d="M3482 2170 c7 -11 17 -20 22 -20 5 0 1 9 -9 20 -10 11 -20 20 -22 20
-2 0 2 -9 9 -20z"/>
<path d="M4134 2143 c2 -10 11 -19 22 -20 16 -2 16 -1 1 3 -9 3 -15 9 -12 14
3 5 1 11 -4 14 -5 4 -8 -2 -7 -11z"/>
<path d="M4120 2106 c0 -2 7 -7 16 -10 8 -3 12 -2 9 4 -6 10 -25 14 -25 6z"/>
<path d="M3550 2080 c0 -5 5 -10 11 -10 5 0 7 5 4 10 -3 6 -8 10 -11 10 -2 0
-4 -4 -4 -10z"/>
<path d="M4130 2070 c0 -5 7 -7 15 -4 8 4 15 8 15 10 0 2 -7 4 -15 4 -8 0 -15
-4 -15 -10z"/>
<path d="M3595 2030 c-19 -8 -19 -9 3 -9 12 -1 22 4 22 9 0 6 -1 10 -2 9 -2 0
-12 -4 -23 -9z"/>
<path d="M4115 1950 c-3 -5 -1 -10 4 -10 6 0 11 5 11 10 0 6 -2 10 -4 10 -3 0
-8 -4 -11 -10z"/>
<path d="M4217 1883 c-4 -3 -7 -11 -7 -17 0 -6 5 -5 12 2 6 6 9 14 7 17 -3 3
-9 2 -12 -2z"/>
<path d="M4307 1875 c-4 -8 -3 -16 1 -19 4 -3 9 4 9 15 2 23 -3 25 -10 4z"/>
<path d="M4015 2860 c-3 -5 -1 -10 4 -10 6 0 11 5 11 10 0 6 -2 10 -4 10 -3 0
-8 -4 -11 -10z"/>
<path d="M6040 729 c0 -5 5 -7 10 -4 6 3 10 8 10 11 0 2 -4 4 -10 4 -5 0 -10
-5 -10 -11z"/>
<path d="M5698 493 c7 -3 16 -2 19 1 4 3 -2 6 -13 5 -11 0 -14 -3 -6 -6z"/>
<path d="M6005 459 c-4 -6 -5 -12 -2 -15 2 -3 7 2 10 11 7 17 1 20 -8 4z"/>
<path d="M6320 461 c0 -5 -9 -8 -20 -6 -22 4 -23 -17 -1 -26 11 -4 10 -8 -3
-21 -25 -26 -19 -33 24 -33 22 0 40 3 40 7 0 3 8 9 18 11 16 4 16 5 0 6 -10 0
-18 7 -18 15 0 16 27 30 50 27 12 -2 13 0 3 10 -10 10 -16 10 -25 1 -15 -15
-31 -16 -22 -1 4 7 1 10 -7 7 -8 -3 -13 -11 -11 -17 1 -7 -2 -10 -8 -6 -6 3
-8 10 -5 15 3 5 1 11 -5 15 -5 3 -10 2 -10 -4z"/>
<path d="M5660 450 c0 -5 7 -7 15 -4 8 4 15 8 15 10 0 2 -7 4 -15 4 -8 0 -15
-4 -15 -10z"/>
<path d="M6230 456 c0 -2 7 -6 15 -10 8 -3 15 -1 15 4 0 6 -7 10 -15 10 -8 0
-15 -2 -15 -4z"/>
<path d="M5585 440 c4 -6 11 -8 16 -5 14 9 11 15 -7 15 -8 0 -12 -5 -9 -10z"/>
<path d="M6090 446 c0 -2 8 -10 18 -17 15 -13 16 -12 3 4 -13 16 -21 21 -21
13z"/>
<path d="M5746 428 c3 -5 10 -6 15 -3 13 9 11 12 -6 12 -8 0 -12 -4 -9 -9z"/>
<path d="M5674 406 c-15 -32 -5 -43 31 -35 24 5 25 7 8 8 -14 1 -23 7 -23 17
0 8 4 13 8 10 5 -3 9 1 9 9 0 23 -21 17 -33 -9z"/>
<path d="M5978 423 c7 -3 16 -2 19 1 4 3 -2 6 -13 5 -11 0 -14 -3 -6 -6z"/>
<path d="M6048 423 c10 -4 9 -9 -5 -20 -17 -14 -17 -14 0 -9 10 3 26 6 34 6
13 0 13 3 3 15 -7 8 -20 15 -29 14 -11 0 -12 -2 -3 -6z"/>
<path d="M5720 409 c0 -5 5 -7 10 -4 6 3 10 8 10 11 0 2 -4 4 -10 4 -5 0 -10
-5 -10 -11z"/>
<path d="M6168 382 c8 -5 13 -13 12 -18 -3 -16 17 -15 23 1 4 8 2 15 -2 15 -5
0 -18 3 -28 6 -13 4 -14 3 -5 -4z"/>
<path d="M6250 375 c0 -8 2 -15 4 -15 2 0 6 7 10 15 3 8 1 15 -4 15 -6 0 -10
-7 -10 -15z"/>
<path d="M6058 373 c7 -3 16 -2 19 1 4 3 -2 6 -13 5 -11 0 -14 -3 -6 -6z"/>
<path d="M6201 336 c-8 -10 -9 -16 -1 -21 5 -3 10 -5 11 -3 4 18 7 38 4 38 -1
0 -8 -6 -14 -14z"/>
<path d="M6133 295 c0 -11 4 -12 14 -4 7 6 13 13 13 15 0 2 -6 4 -13 4 -8 0
-14 -7 -14 -15z"/>
<path d="M6140 263 c0 -5 12 -16 25 -26 24 -17 24 -17 18 0 -9 26 -44 46 -43
26z"/>
<path d="M6030 180 c-9 -6 -10 -10 -3 -10 6 0 15 5 18 10 8 12 4 12 -15 0z"/>
<path d="M6565 170 c-3 -5 -1 -10 4 -10 6 0 11 5 11 10 0 6 -2 10 -4 10 -3 0
-8 -4 -11 -10z"/>
<path d="M6254 161 c4 -5 0 -12 -6 -14 -7 -3 -4 -6 7 -7 19 -1 19 -1 2 -14
-16 -12 -16 -14 -2 -20 9 -3 13 -10 10 -16 -4 -6 -11 -8 -16 -5 -5 4 -9 1 -9
-5 0 -6 -5 -8 -10 -5 -6 4 -8 9 -6 13 5 9 -58 7 -73 -2 -7 -5 -8 -13 -2 -24 4
-9 6 -23 3 -31 -8 -23 19 -30 106 -30 74 1 83 3 78 17 -5 15 -4 14 8 -1 12
-16 30 -18 162 -16 98 1 139 5 119 10 -16 5 -39 6 -51 3 -24 -6 -43 24 -24 36
8 5 6 9 -5 13 -11 5 -14 3 -9 -5 5 -8 2 -9 -11 -4 -16 6 -16 4 -4 -10 13 -16
12 -16 -8 -5 -25 13 -27 52 -4 62 8 3 15 13 17 23 2 16 0 16 -17 -3 -22 -23
-35 -26 -44 -11 -3 6 -11 10 -18 10 -6 0 -2 -7 9 -16 17 -15 17 -15 -8 0 -15
9 -35 13 -44 9 -11 -4 -15 -3 -11 5 8 12 -40 11 -61 -1 -6 -5 -12 -4 -12 2 0
6 -5 11 -11 11 -5 0 -7 -6 -3 -12 5 -9 2 -8 -9 1 -14 11 -15 16 -5 29 9 11 9
14 1 9 -6 -4 -14 -3 -18 3 -3 5 -11 10 -16 10 -6 0 -8 -4 -5 -9z m31 -59 c-3
-3 -11 0 -18 7 -9 10 -8 11 6 5 10 -3 15 -9 12 -12z m55 -6 c0 -2 -9 -6 -20
-9 -11 -3 -20 -1 -20 4 0 5 9 9 20 9 11 0 20 -2 20 -4z m-140 -27 c0 -16 -21
-20 -35 -6 -8 8 -12 17 -9 20 7 7 44 -4 44 -14z m90 11 c0 -5 -2 -10 -4 -10
-3 0 -8 5 -11 10 -3 6 -1 10 4 10 6 0 11 -4 11 -10z m200 0 c0 -5 -12 -10 -27
-9 -25 0 -26 1 -8 9 27 12 35 12 35 0z"/>
<path d="M6561 129 c0 -15 5 -31 12 -37 9 -8 12 -4 14 15 1 17 -2 22 -7 13 -6
-10 -9 -6 -13 11 -4 24 -4 23 -6 -2z"/>
</g>
</svg>
